# xmcd
#
# Track frame offsets: 
#        183
#        22608
#        34220
#        52948
#        77233
#        94980
#        114643
#        135468
#        153510
#        169663
#        219700
#        238380
#        256750
#        280568
#
# Disc length: 4305 seconds
#
# Revision: 7
# Processed by: cddbd v1.5.2PL0 Copyright (c) Steve Scherf et al.
# Submitted via: ExactAudioCopy v1.3
#
DISCID=b610cf0e
DTITLE=Fitzwilliam String Quartet - String Quartets
DYEAR=1977
DGENRE=Classical
TTITLE0=String Quartet #8 In C Minor, Op. 110 - I Largo
TTITLE1=String Quartet #8 In C Minor, Op. 110 - II Allegro molto
TTITLE2=String Quartet #8 In C Minor, Op. 110 - III Allegretto
TTITLE3=String Quartet #8 In C Minor, Op. 110 - IV Largo
TTITLE4=String Quartet #8 In C Minor, Op. 110 - V Largo
TTITLE5=String Quartet #9 In E Flat, Op. 117 - I Moderato con moto -
TTITLE6=String Quartet #9 In E Flat, Op. 117 - II Adagio -
TTITLE7=String Quartet #9 In E Flat, Op. 117 - III Allegretto -
TTITLE8=String Quartet #9 In E Flat, Op. 117 - IV Adagio -
TTITLE9=String Quartet #9 In E Flat, Op. 117 - V Allegro
TTITLE10=String Quartet #10 In A Flat, Op. 118 - I Andante
TTITLE11=String Quartet #10 In A Flat, Op. 118 - II Allegretto furioso
TTITLE12=String Quartet #10 In A Flat, Op. 118 - III Adagio -
TTITLE13=String Quartet #10 In A Flat, Op. 118 - IV Allegretto - Andan
TTITLE13=te
EXTD=
EXTT0=
EXTT1=
EXTT2=
EXTT3=
EXTT4=
EXTT5=
EXTT6=
EXTT7=
EXTT8=
EXTT9=
EXTT10=
EXTT11=
EXTT12=
EXTT13=
PLAYORDER=
